<?xml version="1.0" encoding="UTF-8"?><svg id="Layer_1" xmlns="http://www.w3.org/2000/svg" viewBox="0 0 49 51.53"><defs><style>.cls-1{fill:#fff;}</style></defs><path class="cls-1" d="m48.89,13.94c.06.02.13-.03.11-.1-.13-.52-.3-1.12-.35-1.36-.28-1.32-.57-2.64-1.9-3.39-.11-.06-.18-.3-.18-.45.03-1.18-.75-1.81-1.64-2.5.07.45.16.79.17,1.14.01.37-.19.57-.59.44-.41-.13-.82.19-.79.62.02.34-.26.62-.59.54-.31-.08-.6-.2-.9-.31.46.85.97,1.62,1.99,1.81.18.03.43.2.48.36.35,1.14,1.19,1.78,2.2,2.27.43.21,1.38.7,2,.93h0Z"/><path class="cls-1" d="m46.63,39.92s-.67-2.53-2.09-4.5c-1.31-1.82-3.14-3.36-4.59-3.37-.67,0-1.07,0-1.32,0,.02-.06.04-.12.06-.18.14-.52.02-.96-.35-1.33-.14-.14-.15-.28-.06-.45.19-.37.2-.79.27-1.19.13-.8-.4-1.48-.66-1.74-.27-.26-.37-.17-.6-.05-.39.21-2.11,1.08-2.27,1-.25-.12.06-.19,1.1-.75.28-.15.57-.32.84-.51.93-.64,2.13-1.27,3.02-1.92,1.04-.76,1.79-1.22,2.03-2.44.1-.53.02-1.4-.04-1.94-.09-.52-.15-.67-.31-.82-.33-.3-.64-.58-.94-.49-.82.26-1.07.16-1.01-.28.07-.47,1.59.13,1.94.36.08.05.11-.09.09-.13-.48-1.84-.8-2.17-1.09-2.16-1.06.06-1.51,1.03-1.55.77-.06-.38.46-.78.69-.94.09-.06.05-.17-.04-.22-2.18-1.14-3.61-.89-4.79-1.76-.73-.54-2.04-2.06-2.63-1.93.49-.38.52-.88.51-1.41,0-.31-.12-.55-.32-.77-.45-.5-1.01-.83-1.57-1.17-.89-.53-1.81-.98-2.85-1.11-.31-.04-.63-.03-.94-.05-.22,0-.39-.08-.49-.3-.08-.17-.15-.35-.25-.51-.3-.5-.59-1.03-1.15-1.29-.13-.06-.27-.09-.41-.15.14.11.26.22.39.31.6.39.88.97,1,1.65.02.09,0,.19-.01.29-.03,0-.05,0-.08,0-.47-1.41-.84-1.61-1.58-2.19-.07-.06-.18-.11-.26-.1-.61.12-1.18.33-1.46.96-.09.21-.21.42-.28.64-.14.44-.43.61-.9.65-1.12.1-2.18.4-3.09,1.11-.06.05-.17.06-.25.04-.96-.17-1.85.05-2.7.48-.3.15-.51.37-.62.69-.35.97-.37,1.96-.25,2.97.02.18.05.35.09.53.06.3.15.6.23.9.25.89,2.24,1.49,4.32,1.31.19-.02-2.04,1.13-3.69.35.15.34.3.68.46,1.03-.9-.37-1.34-1.14-1.78-1.96-.07.11-.11.18-.15.25-.45.91-.74,1.88-.98,2.86-.61,2.54-.42,5.02.68,7.39.44.94.99,1.82,1.49,2.73.12.21.21.43.1.69-.45-.19-.87-.41-1.19-.8-.98-1.22-1.63-2.6-2.04-4.09-.48-1.75-.56-3.51-.18-5.29.38-1.77,1.06-3.43,1.96-4.99.04-.07.06-.15.06-.23-.03-.28-.07-.56-.11-.84-.03.03-.06.06-.09.1-.77.95-1.37,1.98-1.77,3.14-.45,1.31-.87,2.62-.91,4.01-.03,1.11-.04,2.22.18,3.32.41,1.96,1.27,3.71,2.41,5.34.09.13.08.21.03.35-.15.42-.29.84-.41,1.26-2.55,1.22-5.24,3.77-5.67,6.23-.08.45-.25.43-.3,2.25v1.94c-1.77-1.95-3.21-4.19-4.27-6.59-.13-.31-.31-.77-.44-1.07-.87-2.32-1.4-4.77-1.54-7.25-.01-.34-.03-.83-.04-1.16,0-.64.02-1.46.07-2.1.24-3.42,1.23-6.78,2.84-9.8,1.26-2.33,2.91-4.49,4.84-6.31.9-.85,1.91-1.67,2.92-2.37.34-.23.74-.49,1.08-.71l.1-.06.81-.48c.4-.22.85-.45,1.25-.66.4-.18.89-.42,1.29-.58l.88-.35c.12-.04,1.03-.36,1.12-.39.33-.1.8-.24,1.14-.34.46-.12.92-.23,1.38-.33.31-.06,1.11-.21,1.4-.25.24-.03.7-.1.94-.13.47-.05.95-.09,1.42-.12.31,0,1.13-.05,1.42-.04.44,0,.99,0,1.43.04,3.41.17,6.78,1.08,9.84,2.58,2.05,1.03,4,2.35,5.7,3.89-.93-.87-1.93-1.67-2.98-2.4-3.41-2.37-7.44-3.87-11.58-4.33-.26-.04-.7-.06-.96-.09-.27-.03-.7-.04-.96-.05-.24,0-.46-.02-.72-.02-.19,0-.98.01-1.21.02-.48.02-.96.06-1.44.09-.35.04-.85.1-1.2.14-.84.13-1.79.31-2.61.51-.34.1-.83.22-1.17.32-.16.05-.98.31-1.15.38l-.9.35c-.42.15-.93.4-1.33.57-.42.2-.89.43-1.3.65l-.85.47-.11.06c-.35.23-.78.48-1.13.71-1.05.71-2.12,1.53-3.06,2.38-2.03,1.84-3.78,4.04-5.13,6.42-3.8,6.73-4.32,14.96-1.44,22.12,1.39,3.49,3.58,6.67,6.33,9.25.33.32.76.68,1.1.98.27.22.69.55.96.77,11.84,8.95,28.64,6.36,37.32-5.63,0,0-.45-.32-.93-.65Zm-7.03-7.13c.05-.05.14-.05.19,0l.79.76c1.1,1.06,1.88,2.41,2.26,3.89l.42,1.48c.02.07-.02.15-.09.17-.01,0-.02,0-.04,0-.06,0-.11-.04-.13-.1l-.42-1.48c-.36-1.44-1.12-2.74-2.18-3.77l-.79-.76c-.05-.05-.05-.14,0-.19h0Zm-6.48-17.74c.69.28-.53.31.11.82.41.33.46.86.46.86,0,0-.25-.47-.76-.79-.65-.41-1.6-.53-2.75-.06-1.64.67-2.39,1.81-2.39,1.81,0,0,.53-1.27,1.97-2.05,1.72-.93,2.76-.84,3.35-.6h0Zm-2.06,2.58c.33-.09.5-.04.58.16.12.29.08.36-.35.61.15.32.42.49.74.59.35.1.65.02.88-.33.11.66-.65.63-1.14.8-.35.12-.19.54-.49.36-.69-.41-1.43-1.07-1.44-1.86,0-.53.4-.66.85-.76.39-.08.57.02,1.25-.16-.22.21-.95.32-.89.6Zm-14.72,2.85c.45-.58.98-1.06,1.7-1.3.96-.31,1.92-.33,2.88.05.05.02.1.04.17.07.23-1.19.58-2.34,1.16-3.4.58-1.06,1.29-2.03,2.01-3.01-1.14.17-2.29.32-3.11,1.29-.03-.21.04-.54.25-.92.15-.29.34-.56.51-.84-.58-.52-1.33-1.49-2.77-2.02-.59-.22-1.96-.32-2.76-.27,1.04-.29,1.69-.48,3.61.19.92.32,1.52,1.1,2.17,1.86.91-1.34,2.1-2.26,3.69-2.64-.52-.01-1.03-.02-1.55-.04-1.1-.04-2.18.09-3.24.37-.21.06-.43.1-.63.18-.17.06-.3.05-.44-.05-.11-.07-.23-.13-.36-.2,1.25-.64,2.54-1.02,3.94-1.01.91.01,1.82.03,2.73.11,1.12.09,2.15.51,3.16,1,.76.37,1.49.78,2.14,1.33.08.07.15.17.25.29-.24.08-.45.14-.65.22-1.82.73-3.51,1.67-4.96,3-.79.73-1.34,1.64-1.82,2.59-.51,1.02-.93,2.08-1.23,3.19-.07.25-.05.48.09.7.5.83.68,1.74.55,2.7-.07.53.2.9.5,1.27.56.69,1.25,1.22,2,1.69,1.55.96,3.2,1.72,4.98,2.13,1.56.36,3.13.35,4.67-.13.5-.16.97-.41,1.44-.63.21-.1.31-.07.35.17.08.44-.17.87-.62,1-2.29.7-4.59.75-6.91.08-.92-.27-1.83-.57-2.7-.98-1.03-.48-1.92-1.15-2.75-1.92-.49-.45-.95-.94-1.45-1.43-.08.13-.17.27-.24.42-.02.04.01.12.04.16.19.23.36.49.58.69.59.53,1.18,1.06,1.8,1.56.77.63,1.65,1.08,2.6,1.38,1.71.54,3.45.94,5.24,1.05,1.21.07,2.39-.11,3.55-.44.17-.05.34-.1.51-.15.14.43-.03.93-.46,1.11-.45.18-.92.34-1.39.42-1.99.36-3.99.55-6.01.33-1.25-.14-2.47-.41-3.63-.92-.86-.38-1.57-.98-2.22-1.64-.74-.74-1.43-1.53-2.16-2.32-.09.05-.23.12-.36.2-.88.5-1.8.57-2.76.25-.93-.3-1.8-.71-2.33-1.58-1.15-1.88-1.07-3.53.22-5.19h0Zm-1.7,9.54c.13.05.24.1.34.15,1.5.75,3.09,1.23,4.72,1.57,2.15.46,4.32.81,6.51,1.01,1.4.13,2.8.11,4.2-.03,1.37-.13,2.73-.35,4.06-.71.69-.18,1.38-.37,2.05-.61.33-.12.54-.03.76.17.07.07.14.15.25.26-.3.12-.55.24-.82.33-1.2.42-2.42.74-3.67.96-1.64.29-3.3.46-4.96.51-1.52.04-3.04.04-4.55-.17-1.82-.25-3.59-.68-5.32-1.29-1.15-.4-2.27-.88-3.4-1.33-.14-.05-.26-.14-.42-.22.09-.22.17-.42.25-.62h0Zm-.94,2.47c.04-.06.12-.09.19-.05l4.29,2.53c.88.52,1.63,1.24,2.19,2.09l.8,1.22c.04.06.02.15-.04.19-.02.02-.05.02-.07.02-.04,0-.09-.02-.11-.06l-.8-1.22c-.53-.82-1.26-1.51-2.1-2l-4.29-2.53c-.06-.04-.09-.12-.05-.19Z"/></svg>