<?xml version="1.0" encoding="UTF-8"?>
<svg width="195px" height="62px" viewBox="0 0 195 62" version="1.1"
    xmlns="http://www.w3.org/2000/svg"
    xmlns:xlink="http://www.w3.org/1999/xlink">
    <!-- Generator: Sketch 50 (54983) - http://www.bohemiancoding.com/sketch -->
    <title>Group 2</title>
    <desc>Created with Sketch.</desc>
    <defs></defs>
    <g id="Symbols" stroke="none" stroke-width="1" fill="none" fill-rule="evenodd">
        <g id="Okta-widget-Error" transform="translate(-98.000000, -40.000000)" fill="#000000" fill-rule="nonzero">
            <g id="Okta-widget">
                <g id="Logo" transform="translate(98.000000, 40.000000)">
                    <g id="PS-Partners-Black">
                        <g id="Group-2">
                            <path d="M92.0094645,0 C95.0655061,0.646207964 98.0809381,1.47138149 101.040175,2.47125556 C106.577426,4.37222137 108.459616,6.74842864 108.459616,12.0663805 C108.459616,17.2940365 105.246585,19.2472789 101.168506,17.2940365 L101.168506,7.60386325 C101.168506,6.47278859 100.959374,5.41775257 99.8947005,5.12310287 C99.0771835,4.86172007 98.5638589,5.59834432 98.5638589,6.76268588 L98.5638589,31 L92.0094645,28.9279473 L92.0094645,0 Z M99.8043934,30.5627779 L114.106187,25.4301702 C114.106187,25.4301702 116.007389,24.717308 116.820153,23.7288058 C117.632917,22.7403035 117.257429,21.3050744 114.163223,20.3213245 C111.253959,19.2958307 108.153269,18.9289884 105.084982,19.2472789 C103.428059,19.418211 101.793607,19.7622632 100.208399,20.2738004 L99.8043934,20.406868 L99.8043934,24.3466197 L106.810323,21.8611069 C108.075605,21.4326861 109.435543,21.3668378 110.736306,21.6710103 C111.686907,21.989422 111.515799,22.5882263 110.322794,23.0254484 L99.8043934,26.7751035 L99.8043934,30.5627779 Z M80.008126,26.3759007 C83.2526838,27.4614315 86.7131903,27.7387596 90.0892504,27.1838111 L90.7404121,27.0887628 L90.7404121,23.6812816 L87.4988624,24.8503756 C86.239821,25.2925628 84.8798684,25.3618722 83.582386,25.049977 C82.6317849,24.7363176 82.7981401,24.132761 83.9958975,23.7050437 L90.7404121,21.2908171 L90.7404121,17.4888855 L81.3579795,20.8155757 C80.0858845,21.2283974 78.8743402,21.8085239 77.7552014,22.5407021 C76.3292998,23.6147478 76.8378714,25.4776943 80.008126,26.3426338 L80.008126,26.3759007 Z M114.733583,30.919209 C114.324994,30.9178897 113.932946,30.7576812 113.640392,30.472482 C113.206509,30.0306611 113.079525,29.3719534 113.318078,28.8005342 C113.556631,28.229115 114.114307,27.8561642 114.733583,27.8539016 C115.144515,27.8579181 115.535975,28.0295897 115.817268,28.329143 C116.411712,28.9292471 116.411712,29.8961399 115.817268,30.4962441 C115.529058,30.7821653 115.139584,30.9427183 114.733583,30.942971 L114.733583,30.919209 Z M113.455025,29.4126935 C113.453459,29.7496281 113.586988,30.0731396 113.825759,30.3108999 C114.191197,30.6717218 114.737097,30.7788849 115.211848,30.5829969 C115.686598,30.3871088 115.998044,29.9261945 116.002636,29.4126935 C116.003899,29.0749006 115.870904,28.7504414 115.63291,28.5106945 C115.394916,28.2709476 115.071418,28.1355521 114.733583,28.134294 C114.392466,28.1353483 114.065804,28.2721529 113.825759,28.5144872 C113.586263,28.7537081 113.452717,29.0789706 113.455025,29.417446 L113.455025,29.4126935 Z M115.489311,30.1445654 L115.489311,30.2396137 L115.161354,30.2396137 C115.158665,30.2191076 115.158665,30.1983383 115.161354,30.1778323 C115.15754,30.1319714 115.15754,30.0858732 115.161354,30.0400123 L115.161354,29.7738771 C115.16691,29.7003274 115.132396,29.6294913 115.071047,29.5885329 C115.009651,29.5786759 114.947075,29.5786759 114.885679,29.5885329 L114.410379,29.5885329 L114.410379,30.2823854 L114.063409,30.2823854 L114.063409,28.5144872 L114.87142,28.5144872 C114.982361,28.5114027 115.092645,28.5324838 115.194625,28.5762686 C115.360348,28.6495748 115.462797,28.8184057 115.451287,28.9992335 C115.451573,29.0882106 115.42687,29.1754809 115.379992,29.2511115 C115.342359,29.3015843 115.299327,29.3477982 115.251661,29.3889315 C115.291044,29.4094284 115.325192,29.4386951 115.351474,29.4744749 C115.397068,29.5396465 115.418882,29.6185033 115.413263,29.6978384 L115.413263,29.9164495 C115.410007,29.9607456 115.410007,30.005221 115.413263,30.0495171 C115.413263,30.0875364 115.446534,30.1112985 115.470299,30.1160509 L115.489311,30.1445654 Z M115.128083,29.0325004 C115.139806,28.9491515 115.097977,28.8674069 115.023517,28.8281466 C114.972832,28.8050611 114.917597,28.7936906 114.861914,28.7948797 L114.386614,28.7948797 L114.386614,29.2701211 L114.861914,29.2701211 C114.93989,29.274924 115.017561,29.2567479 115.085306,29.2178446 C115.139554,29.1705156 115.166349,29.0990728 115.156601,29.027748 L115.128083,29.0325004 Z" id="Shape"></path>
                            <g id="Group" transform="translate(0.000000, 41.000000)">
                                <path d="M121,0 L126.325135,0 C129.22496,0 131.717373,1.05889529 131.717373,4.5523043 C131.717373,8.04571332 129.22496,9.3551508 126.3491,9.3551508 L122.99393,9.3551508 L122.99393,16.0961538 L121.004793,16.0961538 L121,0 Z M122.989137,7.71008133 L126.162169,7.71008133 C128.079409,7.71008133 129.728236,7.10027109 129.728236,4.61848526 C129.728236,2.13669942 128.060237,1.64506947 125.956066,1.64506947 L122.989137,1.64506947 L122.989137,7.71008133 Z" id="Shape"></path>
                                <path d="M139.645337,8.44599298 C139.645337,6.47052501 138.713562,5.51849225 136.730552,5.51849225 C135.668385,5.53812237 134.621982,5.77805814 133.658082,6.22299649 L133.223254,4.69974408 C134.370569,4.25267817 135.589479,4.01562849 136.821341,4 C139.760017,4 141.599676,5.38520766 141.599676,8.28414741 L141.599676,13.5203276 C141.597827,14.434176 141.672951,15.3465678 141.824258,16.2479014 L140.123171,16.2479014 C139.970345,15.660697 139.879068,15.0592855 139.850806,14.4533197 L139.803022,14.4533197 C139.167504,15.5862387 137.891688,16.5192308 135.951684,16.5192308 C134.011679,16.5192308 132,15.4624744 132,12.9205469 C132,9.4694282 135.550303,8.78872477 139.674007,8.78872477 L139.645337,8.44599298 Z M139.100607,10.1739324 C136.39129,10.1739324 133.844438,10.626148 133.844438,12.8301038 C133.844438,14.0772667 134.503848,15.0054987 136.052029,15.0054987 C138.441196,15.0054987 139.650115,13.2156771 139.650115,11.1973677 L139.650115,10.1739324 L139.100607,10.1739324 Z" id="Shape"></path>
                                <path d="M148.881485,5.6022672 C148.545258,5.55081228 148.205217,5.52703674 147.864932,5.53119032 C146.252969,5.53119032 144.960495,6.47888212 144.960495,9.23666526 L144.960495,16.2211538 L143,16.2211538 L143,4.28971406 L144.892725,4.28971406 L144.892725,5.89605166 C145.492975,4.62614465 146.509528,4.00066806 148.077924,4.00066806 C148.370611,3.99663333 148.663262,4.01087762 148.954096,4.04331419 L148.881485,5.6022672 Z" id="Shape"></path>
                                <path d="M149,4.01933065 L151.130243,4.01933065 L151.130243,1 L153.060776,1 L153.060776,4.03368563 L155.823435,4.03368563 L155.823435,5.54574344 L153.060776,5.54574344 L153.060776,12.756728 C153.060776,14.4027657 153.217691,14.6707253 154.577623,14.6707253 C155.002341,14.6684365 155.42645,14.6380661 155.84721,14.5798104 L155.84721,16.0440183 C155.247679,16.1387417 154.64234,16.1915032 154.035553,16.2019231 C151.539174,16.2019231 151.130243,14.9913198 151.130243,12.8524279 L151.130243,5.54574344 L149,5.54574344 L149,4.01933065 Z" id="Shape"></path>
                                <path d="M159.844401,4.28734879 L159.844401,6.03618678 L159.867926,6.03618678 C160.646901,4.7247979 162.073592,3.94539018 163.589664,4.00298489 C166.262163,4.00298489 167.824258,5.71864709 167.824258,8.33953438 L167.824258,16.2069357 L165.918691,16.2069357 L165.918691,9.07888053 C165.918691,6.88453909 165.292912,5.52907116 163.137974,5.52907116 C161.524123,5.52907116 159.905567,6.68074496 159.905567,9.46277179 L159.905567,16.2211538 L158,16.2211538 L158,4.28734879 L159.844401,4.28734879 Z" id="Shape"></path>
                                <path d="M170.869706,10.7773556 C171.00838,13.3408606 172.581611,14.9959622 175.135123,14.9959622 C176.241879,15.0031941 177.340111,14.8031269 178.372441,14.4062134 L178.692825,15.8805854 C177.543479,16.3220295 176.319199,16.5384323 175.087305,16.5178947 C171.099235,16.5178947 169,13.8402447 169,10.2779715 C169,6.71569827 171.075326,4 174.427408,4 C177.779491,4 179.419668,6.30667892 179.419668,9.82614779 L179.419668,10.7773556 L170.869706,10.7773556 Z M170.869706,9.26017915 L177.664726,9.26017915 L177.664726,9.1698144 C177.664726,6.8774036 176.364061,5.51717644 174.451318,5.51717644 C172.304264,5.51242041 171.075326,7.05337704 170.869706,9.25542311 L170.869706,9.26017915 Z" id="Shape"></path>
                                <path d="M185.857673,5.60224376 C185.522787,5.55096451 185.184138,5.52718998 184.845236,5.53116672 C183.234978,5.53116672 181.952558,6.47886061 181.952558,9.23664985 L181.952558,16.2211538 L180,16.2211538 L180,4.28968772 L181.885062,4.28968772 L181.885062,5.89602887 L181.909168,5.89602887 C182.506988,4.62611905 183.514604,4.00064108 185.07665,4.00064108 C185.369754,3.99669869 185.662818,4.01094242 185.954096,4.04328731 L185.857673,5.60224376 Z" id="Shape"></path>
                                <path d="M193.286679,6.09087185 C192.360491,5.66497192 191.351023,5.45491969 190.333259,5.47631812 C189.274753,5.47631812 188.079208,5.84314476 188.079208,7.13418399 C188.079208,8.1584402 188.712421,8.68247826 190.602611,9.38278367 C192.856661,10.2260086 194.335734,11.0882894 194.335734,13.1320378 C194.335734,15.6760044 192.105311,16.5192293 189.988299,16.5192293 C188.613275,16.5199938 187.253797,16.226071 186,15.6569485 L186.496175,14.1324741 C187.605496,14.6548598 188.807333,14.9480486 190.030828,14.9947549 C191.44847,14.9947549 192.464447,14.5659965 192.464447,13.2463734 C192.464447,12.1363655 191.453196,11.5218118 189.581908,10.8643822 C187.464897,10.092617 186.245725,9.06836084 186.245725,7.38667506 C186.245725,5.04755971 188.367462,4.00424756 190.347435,4.00424756 C191.515925,3.96567068 192.678244,4.1902639 193.749776,4.66167713 L193.286679,6.09087185 Z" id="Shape"></path>
                                <path d="M0.0142215665,0 L6.0726089,0 C9.2392777,0 11.9081917,1.21962047 11.9081917,4.98248052 C11.9081917,8.74534056 9.2392777,10.210776 6.09631151,10.210776 L3.31836552,10.210776 L3.31836552,16.0961538 L0,16.0961538 L0.0142215665,0 Z M3.33258708,7.56353778 L5.75025339,7.56353778 C7.3999551,7.56353778 8.59456669,6.95845476 8.59456669,5.11011522 C8.59456669,3.26177567 7.37625249,2.65196544 5.56537302,2.65196544 L3.30888447,2.65196544 L3.33258708,7.56353778 Z" id="Shape"></path>
                                <polygon id="Shape" points="16.2747527 0 16.2747527 16.0961538 13 16.0961538 13 0.0236360556"></polygon>
                                <path d="M25.598585,8.42358838 C25.598585,7.17261661 24.7755645,6.42583879 22.9285533,6.42583879 C21.8603546,6.43949876 20.8028264,6.6391215 19.8039462,7.01565057 L19.2297458,4.713482 C20.4916317,4.27152944 21.8158885,4.03072797 23.1534484,4 C27.1680661,4 28.8332472,5.67906097 28.8332472,8.58055442 L28.8332472,13.5273629 C28.8218888,14.4376171 28.8826869,15.3473463 29.0150773,16.2481076 L26.1440754,16.2481076 C26.0170843,15.7649534 25.9338126,15.2714782 25.8952552,14.7735782 L25.8474052,14.7735782 C25.2349248,15.8390446 23.9334039,16.5192308 22.3591379,16.5192308 C20.2585215,16.5192308 18,15.5679214 18,12.7996113 C18,9.28452332 21.4691273,8.71849427 25.598585,8.71849427 L25.598585,8.42358838 Z M25.1631498,10.7114873 C22.9524783,10.7114873 21.1485321,11.0539587 21.1485321,12.6616714 C21.1485321,13.7081117 21.8327875,14.2979235 22.9285533,14.2979235 C24.8425545,14.2979235 25.598585,12.9137684 25.598585,11.5533961 L25.598585,10.7114873 L25.1631498,10.7114873 Z" id="Shape"></path>
                                <polygon id="Shape" points="35.2917107 12.0520547 35.3339685 12.0520547 38.1793243 4.02378043 41.5036013 4.02378043 35.1132891 20.3942308 31.7326684 20.3942308 33.6577441 15.6999732 29 4 32.4228785 4"></polygon>
                                <path d="M51.5073466,3.25622409 C50.3813891,2.86479489 49.1959124,2.66611031 48.0021127,2.66875076 C46.6720446,2.66875076 45.3899933,3.0525035 45.3899933,4.38379387 C45.3899933,5.51610134 46.3503313,6.07988623 48.4822818,6.93740779 C51.1856333,8.04602681 53.0150773,9.1309574 53.0150773,11.9546195 C53.0150773,15.1809852 50.1772784,16.6923077 46.9697494,16.6923077 C45.2793836,16.6878789 43.6009611,16.4126705 42,15.8774253 L42.5954096,13.1911561 C43.9503905,13.7303469 45.3937493,14.0209509 46.8545088,14.0486777 C48.664746,14.0486777 49.6731009,13.4185652 49.6731009,12.1536024 C49.6731009,10.8886397 48.6887544,10.3485433 46.4655719,9.4910217 C43.8582541,8.44873031 42.0480169,7.16007913 42.0480169,4.67753054 C42.0480169,1.3327227 45.0250648,0.00143232912 47.8100451,0.00143232912 C49.2597317,-0.0189917174 50.7040797,0.17911583 52.0931528,0.58890566 L51.5073466,3.25622409 Z" id="Shape"></path>
                                <path d="M53,4.15957829 L54.8137871,4.15957829 L54.8137871,1 L57.9867427,1 L57.9867427,4.15957829 L60.4426198,4.15957829 L60.4426198,6.57183117 L57.9867427,6.57183117 L57.9867427,11.8977071 C57.9867427,13.5200655 58.2070218,13.7896702 59.3271642,13.7896702 C59.6788376,13.7860814 60.0297567,13.7560421 60.3770048,13.6998019 L60.3770048,16.0931352 C59.6935073,16.1654142 59.0067442,16.201726 58.3195047,16.2019231 C55.3715149,16.2019231 54.8137871,15.0099864 54.8137871,12.7538204 L54.8137871,6.60494052 L53,6.60494052 L53,4.15957829 Z" id="Shape"></path>
                                <path d="M68.6177251,8.41407529 C68.6177251,7.16310352 67.7947045,6.4163257 65.9476933,6.4163257 C64.8859783,6.43258392 63.8351849,6.63215788 62.8422262,7.00613748 L62.2249608,4.7039689 C63.4888954,4.26476236 64.814792,4.02716711 66.1534484,4 C70.1680661,4 71.8332472,5.67906097 71.8332472,8.58055442 L71.8332472,13.5273629 C71.8218888,14.4376171 71.8826869,15.3473463 72.0150773,16.2481076 L69.1440754,16.2481076 C69.0194068,15.764462 68.9361693,15.2711894 68.8952552,14.7735782 L68.8474052,14.7735782 C68.2349248,15.8390446 66.9334039,16.5192308 65.3591379,16.5192308 C63.2585215,16.5192308 61,15.5679214 61,12.7996113 C61,9.28452332 64.4691273,8.71849427 68.598585,8.71849427 L68.6177251,8.41407529 Z M68.1392247,10.7019742 C65.9285533,10.7019742 64.1246071,11.0444456 64.1246071,12.6521583 C64.1246071,13.6985986 64.8088625,14.2884104 65.9046283,14.2884104 C67.8186295,14.2884104 68.57466,12.9042553 68.57466,11.543883 L68.57466,10.7019742 L68.1392247,10.7019742 Z" id="Shape"></path>
                                <path d="M73,4.15957829 L74.8091003,4.15957829 L74.8091003,1 L77.982056,1 L77.982056,4.15957829 L80.4426198,4.15957829 L80.4426198,6.57183117 L77.982056,6.57183117 L77.982056,11.8977071 C77.982056,13.5200655 78.2070218,13.7896702 79.3271642,13.7896702 C79.6788376,13.7860814 80.0297567,13.7560421 80.3770048,13.6998019 L80.3770048,16.0931352 C79.6935073,16.1654142 79.0067442,16.201726 78.3195047,16.2019231 C75.3668281,16.2019231 74.8091003,15.0099864 74.8091003,12.7538204 L74.8091003,6.60494052 L73,6.60494052 L73,4.15957829 Z" id="Shape"></path>
                                <path d="M85.2747527,0 L85.2747527,2.7797712 L82,2.7797712 L82,0 L85.2747527,0 Z M85.2747527,4.17202458 L85.2747527,16.0961538 L82,16.0961538 L82,4.17202458 L85.2747527,4.17202458 Z" id="Shape"></path>
                                <path d="M92.1029482,16.5192308 C88.3831466,16.5192308 86,14.1409574 86,10.2358327 C86,6.33070786 88.3783898,4 92.1029482,4 C95.8275067,4 98.2058965,6.3354644 98.2058965,10.2358327 C98.2058965,14.1362009 95.7751821,16.5192308 92.1029482,16.5192308 Z M92.1029482,6.42583879 C90.1526686,6.42583879 89.2203398,7.99074264 89.2203398,10.2310761 C89.2203398,12.5665405 90.1716957,14.0886354 92.1029482,14.0886354 C94.0342008,14.0886354 94.9855567,12.5665405 94.9855567,10.2310761 C94.9855567,7.99074264 94.0532279,6.42583879 92.1029482,6.42583879 Z" id="Shape"></path>
                                <path d="M102.171406,4.2890618 L102.171406,5.89548722 L102.214456,5.89548722 C102.831517,4.67289796 104.314377,4 105.864204,4 C108.581185,4 110.312782,5.71541593 110.312782,8.33592701 L110.312782,16.202199 L107.074409,16.202199 L107.074409,9.55377755 C107.074409,7.61090315 106.619984,6.43570108 104.840553,6.43570108 C103.582514,6.43570108 102.238374,7.31710263 102.238374,9.75280371 L102.238374,16.2211538 L99,16.2211538 L99,4.2890618 L102.171406,4.2890618 Z" id="Shape"></path>
                                <polygon id="Shape" points="114.679343 13 112 13 112 13.6454228 112.957252 13.6454228 112.957252 16.5769231 113.741333 16.5769231 113.741333 13.6454228 114.679343 13.6454228"></polygon>
                                <polygon id="Shape" points="118.870162 13 117.594824 13 116.927723 15.6309599 116.908103 15.6309599 116.241003 13 115 13 115 16.5769231 115.725962 16.5769231 115.725962 13.8030833 115.745583 13.8030833 116.515691 16.5769231 117.290704 16.5769231 118.070623 13.8030833 118.090244 13.8030833 118.090244 16.5769231 118.870162 16.5769231"></polygon>
                            </g>
                        </g>
                    </g>
                </g>
            </g>
        </g>
    </g>
</svg>